<svg width="280" height="60" viewBox="0 0 280 60" fill="none" xmlns="http://www.w3.org/2000/svg">
<rect width="280" height="60" fill="white"/>
<path fill-rule="evenodd" clip-rule="evenodd" d="M48.7207 20.1821L42.9944 17.1115L31.4685 23.2868L28.5797 21.7344L42.9944 14L51.6242 18.6298L48.7207 20.1821ZM42.9996 26.3574L54.5182 20.1821L57.4216 21.7344L42.9996 29.4621L34.3772 24.8391L37.2734 23.2868L42.9996 26.3574ZM30.8961 30.572L28 29.0196V38.2656L42.4147 46V42.8953L30.8961 36.7132V30.572ZM39.5185 32.09L28 25.9147V22.81L42.4147 30.5376V39.7904L39.5185 38.2312V32.09ZM52.2086 29.0194V25.9147L43.5788 30.5377V45.9998L46.475 44.4474V32.09L52.2086 29.0194ZM55.0969 36.7129V24.3623L58.0004 22.81V38.2653L49.3706 42.895V39.7904L55.0969 36.7129Z" fill="#212121"/>
<path d="M81.7604 15.28C81.7604 14.4267 82.187 14 83.0404 14H83.3924C84.2457 14 84.6724 14.4267 84.6724 15.28V35.76C84.6724 36.6133 84.2457 37.04 83.3924 37.04H83.0404C82.187 37.04 81.7604 36.6133 81.7604 35.76V27.408C81.7604 26.5547 81.3337 26.128 80.4804 26.128H76.1924C75.339 26.128 74.9124 26.5547 74.9124 27.408V35.76C74.9124 36.6133 74.4857 37.04 73.6324 37.04H73.2804C72.427 37.04 72.0004 36.6133 72.0004 35.76V15.28C72.0004 14.4267 72.427 14 73.2804 14H73.6324C74.4857 14 74.9124 14.4267 74.9124 15.28V21.936C74.9124 22.7893 75.339 23.216 76.1924 23.216H80.4804C81.3337 23.216 81.7604 22.7893 81.7604 21.936V15.28Z" fill="#212121"/>
<path d="M93.7954 29.008C94.6487 29.008 95.0753 28.5813 95.0753 27.728V22.512C95.0753 21.6587 95.502 21.232 96.3554 21.232H96.7073C97.5607 21.232 97.9874 21.6587 97.9874 22.512V36.656C97.9874 37.2747 97.774 37.7973 97.3474 38.224L96.2914 39.28C95.8647 39.7067 95.342 39.92 94.7234 39.92H89.1234C88.27 39.92 87.8434 39.4933 87.8434 38.64V38.288C87.8434 37.4347 88.27 37.008 89.1234 37.008H93.7954C94.6487 37.008 95.0753 36.5813 95.0753 35.728V33.2C95.0753 32.3467 94.6487 31.92 93.7954 31.92H90.8194C90.2007 31.92 89.678 31.7067 89.2514 31.28L88.1954 30.224C87.7687 29.7973 87.5554 29.2747 87.5554 28.656V22.512C87.5554 21.6587 87.982 21.232 88.8354 21.232H89.1874C90.0407 21.232 90.4674 21.6587 90.4674 22.512V27.728C90.4674 28.5813 90.894 29.008 91.7474 29.008H93.7954Z" fill="#212121"/>
<path d="M102.788 40.016C101.935 40.016 101.508 39.5893 101.508 38.736V22.512C101.508 21.6587 101.935 21.232 102.788 21.232H108.676C109.295 21.232 109.817 21.4453 110.244 21.872L111.268 22.896C111.695 23.3227 111.908 23.8453 111.908 24.464V30.448C111.908 31.0667 111.695 31.6 111.268 32.048L110.244 33.072C109.817 33.4987 109.295 33.712 108.676 33.712H105.7C104.847 33.712 104.42 34.1387 104.42 34.992V38.736C104.42 39.5893 103.993 40.016 103.14 40.016H102.788ZM105.7 24.112C104.847 24.112 104.42 24.5387 104.42 25.392V29.52C104.42 30.3733 104.847 30.8 105.7 30.8H107.748C108.601 30.8 109.028 30.3733 109.028 29.52V25.392C109.028 24.5387 108.601 24.112 107.748 24.112H105.7Z" fill="#212121"/>
<path d="M125.494 29.808C125.494 30.6613 125.067 31.088 124.214 31.088H119.286C118.433 31.088 118.006 31.5147 118.006 32.368V32.816C118.006 33.6693 118.433 34.096 119.286 34.096H124.214C125.067 34.096 125.494 34.5227 125.494 35.376V35.728C125.494 36.5813 125.067 37.008 124.214 37.008H118.326C117.707 37.008 117.185 36.784 116.758 36.336L115.734 35.312C115.307 34.8853 115.094 34.3627 115.094 33.744V24.464C115.094 23.8453 115.307 23.3227 115.734 22.896L116.758 21.872C117.185 21.4453 117.707 21.232 118.326 21.232H122.262C122.881 21.232 123.403 21.4453 123.83 21.872L124.854 22.896C125.281 23.3227 125.494 23.8453 125.494 24.464V29.808ZM118.006 27.248C118.006 28.1013 118.433 28.528 119.286 28.528H121.302C122.155 28.528 122.582 28.1013 122.582 27.248V25.392C122.582 24.5387 122.155 24.112 121.302 24.112H119.286C118.433 24.112 118.006 24.5387 118.006 25.392V27.248Z" fill="#212121"/>
<path d="M131.92 35.728C131.92 36.5813 131.493 37.008 130.64 37.008H130.288C129.435 37.008 129.008 36.5813 129.008 35.728V24.496C129.008 23.8773 129.221 23.3547 129.648 22.928L130.704 21.872C131.131 21.4453 131.653 21.232 132.272 21.232H132.848C133.701 21.232 134.128 21.6587 134.128 22.512V22.864C134.128 23.7173 133.765 24.144 133.04 24.144C132.677 24.144 132.4 24.2613 132.208 24.496C132.016 24.7093 131.92 25.0187 131.92 25.424V35.728Z" fill="#212121"/>
</svg>
